<?xml version="1.0" encoding="utf-8"?>
<!DOCTYPE svg PUBLIC "-//W3C//DTD SVG 1.0//EN" "http://www.w3.org/TR/2001/REC-SVG-20010904/DTD/svg10.dtd">
<svg aria-labelledby="title desc" fill-rule="evenodd" height="3.951388888888889in" preserveAspectRatio="none" stroke-linecap="round" viewBox="0 0 2988 2276" width="5.1875in" xmlns="http://www.w3.org/2000/svg" xmlns:xlink="http://www.w3.org/1999/xlink"><title>cartoons,controls,cowering,directing,emotions,forces,gestures,influence,people,pointing,powers,Screen Beans®,submissions</title><desc>Original keywords: cartoons,controls,cowering,directing,emotions,forces,gestures,influence,people,pointing,powers,Screen Beans®,submissions. This clipart was ripped from the Microsoft website, then uploaded to https://archive.org/details/MS_Clipart_Collection. (The original WMF file can be found within that item, under the folder MC900078734). From there, it was then converted by Trumad to svg using https://github.com/hidekatsu-izuno/wmf2svg in a bulk operation. All the converted files can be found at https://archive.org/details/MS_Clipart_Collection_SVG</desc>
<style type="text/css">
.brush0 { fill: rgb(255,255,255); }
.pen0 { stroke: rgb(0,0,0); stroke-width: 1; stroke-linejoin: round; }
.pen1 { stroke: none; }
.brush1 { fill: rgb(0,0,0); }
.brush2 { fill: rgb(255,255,255); }
.brush3 { fill: none; }
</style>
<g>
<polygon class="pen1 brush1" points="286,624 312,552 378,492 451,492 537,552 623,624 741,763 807,914 840,1092 840,1205 807,1290 755,1376 649,1409 570,1416 418,1409 339,1336 259,1251 239,1139 239,1020 266,783"/>
<polygon class="pen1 brush1" points="580,493 640,513 871,665 1009,738 1220,870 1432,995 1432,1028 1399,1035 1267,949 1234,949 1214,975 1174,995 1128,995 1075,942 1055,876 1069,823 976,771 857,724 732,672 640,639 567,586 541,533"/>
<polygon class="pen1 brush1" points="205,573 284,487 344,494 370,540 337,600 238,685 159,765 59,844 59,883 79,943 205,1042 258,1101 264,1134 244,1173 205,1213 192,1292 218,1365 211,1385 178,1371 159,1312 159,1233 185,1180 218,1121 198,1101 132,1035 53,982 0,916 0,817 33,771 106,725 178,639"/>
<polygon class="pen1 brush1" points="494,462 441,462 388,436 355,363 355,238 401,99 474,7 540,0 620,13 659,73 673,132 659,211 646,284 726,350 766,389 766,416 746,416 633,330 593,389 527,442"/>
<polygon class="pen1 brush1" points="303,1550 297,1438 283,1300 343,1227 421,1260 441,1425 441,1576 421,1767 369,1886 329,2005 277,2084 277,2116 369,2136 448,2169 527,2242 507,2261 441,2275 395,2248 310,2182 237,2143 198,2136 192,2090 244,2018 297,1958 336,1866 356,1754 343,1649 310,1517"/>
<polygon class="pen1 brush1" points="568,1266 627,1299 647,1345 674,1464 680,1622 660,1839 601,1991 568,2057 568,2116 700,2156 786,2195 792,2215 759,2248 674,2248 627,2208 575,2176 528,2136 475,2116 482,2090 528,2037 575,1965 614,1866 627,1741 614,1602 575,1490 535,1437 509,1352"/>
<polygon class="pen1 brush2" points="435,578 488,558 528,565 514,658 687,949 713,1035 687,1148 607,1075 594,975 495,651"/>
<polygon class="pen1 brush1" points="1582,1812 1591,1713 1661,1648 1796,1572 1967,1527 2112,1510 2218,1546 2310,1612 2360,1671 2399,1763 2413,1841 2380,1894 2343,1920 2254,1933 2172,1920 2119,1881 2063,1838 2013,1812 1934,1812 1849,1825 1746,1848 1667,1864 1595,1864"/>
<polygon class="pen1 brush1" points="2300,1710 2366,1742 2379,1789 2419,1861 2419,1914 2386,2019 2346,2092 2313,2138 2300,2197 2320,2224 2419,2204 2498,2164 2597,2085 2676,1993 2716,1914 2736,1868 2769,1868 2789,1874 2815,1947 2842,2013 2914,2059 2987,2085 2967,2105 2928,2125 2861,2105 2822,2052 2795,2006 2776,1960 2756,1947 2736,1967 2696,2039 2610,2138 2531,2184 2445,2230 2326,2257 2267,2250 2247,2224 2247,2197 2247,2158 2273,2092 2320,2032 2346,1940 2353,1894 2333,1848 2280,1802 2287,1756"/>
<polygon class="pen1 brush1" points="2182,1648 2248,1681 2261,1728 2301,1800 2301,1853 2268,1959 2228,2032 2195,2079 2182,2138 2202,2165 2301,2145 2380,2105 2479,2026 2558,1933 2598,1853 2618,1807 2651,1807 2671,1814 2697,1887 2724,1953 2796,1999 2869,2026 2849,2046 2810,2065 2743,2046 2704,1993 2677,1946 2658,1900 2638,1887 2618,1906 2578,1979 2492,2079 2413,2125 2327,2171 2208,2198 2149,2191 2129,2165 2129,2138 2129,2099 2155,2032 2202,1973 2228,1880 2235,1834 2215,1787 2162,1741 2169,1694"/>
<polygon class="pen1 brush1" points="1702,1820 1662,1787 1622,1787 1603,1820 1609,1860 1682,1985 1748,2117 1754,2189 1735,2229 1682,2229 1530,2235 1392,2222 1319,2189 1260,2163 1227,2163 1187,2202 1095,2216 1082,2242 1141,2249 1227,2242 1253,2229 1326,2255 1385,2255 1471,2268 1596,2275 1708,2268 1774,2249 1801,2216 1801,2169 1801,2084 1768,1998 1735,1906"/>
<polygon class="pen1 brush1" points="1635,1728 1602,1760 1595,1813 1602,1886 1622,1971 1635,2070 1648,2117 1641,2136 1575,2143 1450,2150 1345,2130 1266,2090 1226,2084 1173,2117 1127,2123 1088,2136 1094,2156 1147,2156 1200,2156 1239,2136 1279,2143 1325,2169 1397,2169 1516,2183 1628,2176 1701,2156 1721,2123 1681,2070 1668,1998 1668,1925 1674,1859 1688,1787"/>
<polygon class="pen1 brush1" points="1550,1836 1560,1783 1537,1724 1471,1681 1346,1665 1208,1694 1103,1754 1090,1816 1090,1895 1146,1942 1201,1961 1280,1961 1356,1958 1408,2047 1441,2090 1468,2097 1468,2077 1399,1952 1464,1922 1527,1866"/>
</g>
</svg>